<svg width="376" height="282" viewBox="0 0 376 282" fill="none" xmlns="http://www.w3.org/2000/svg">
<path d="M188.005 46.3537C227.014 46.3537 263.507 59.7645 290.745 84.114C316.679 107.286 330.959 137.667 330.959 169.641C330.959 201.615 316.679 231.995 290.745 255.167C278.276 266.305 263.878 275.161 248.176 281.482H329.338C358.388 251.627 376 212.49 376 169.641C376 75.9461 291.832 0 188.005 0C84.1773 0 0 75.9461 0 169.641C0 212.49 17.6215 251.627 46.6616 281.482H127.814C112.122 275.161 97.7149 266.305 85.2459 255.167C59.3117 231.995 45.0316 201.615 45.0316 169.641C45.0316 137.667 59.3117 107.286 85.2459 84.114C112.493 59.7645 148.977 46.3537 187.995 46.3537H188.005Z" fill="#FFFCF4"/>
<path d="M170.501 120.008L170.528 119.99C179.13 118.632 188.457 119.076 200.682 121.475C218.285 124.916 233.335 131.146 246.728 140.573L253.094 144.883L276.356 105.864L272.49 102.985C272.001 102.622 271.503 102.242 270.996 101.925C234.992 78.9521 195.421 70.6937 153.477 77.295C139.813 79.4592 127.633 84.6841 117.256 92.8247C107.006 100.929 100.93 112.601 100.133 125.713C99.3359 138.997 104.054 151.81 113.091 160.893C121.44 169.296 131.745 175.128 145.472 179.266C146.188 179.501 146.894 179.664 147.582 179.864C149.71 180.434 153.83 181.43 155.65 181.901L188.602 189.534C194.642 190.911 200.673 192.296 206.695 193.736C210.579 194.669 214.355 196.489 217.923 199.151C220.721 201.207 222.251 204.032 222.233 207.111C222.215 210.271 220.603 213.368 218.041 215.17C214.79 217.461 210.932 218.837 205.499 219.625C196.68 221.001 187.38 220.512 175.3 218.167C157.968 214.835 142.502 208.487 129.272 199.242L122.916 195.022L99.6619 233.661L103.202 236.359C103.773 236.785 104.362 237.21 105.041 237.654C132.976 255.312 163.193 264.24 194.859 264.24C203.915 264.24 213.232 263.498 222.523 262.031C236.178 259.912 248.358 254.732 258.717 246.646C268.995 238.623 275.089 227.041 275.886 214.011C276.664 200.835 271.937 188.131 262.9 179.148C254.66 170.953 244.047 165.013 230.546 160.983C229.84 160.748 229.133 160.576 228.445 160.386C226.281 159.815 222.134 158.792 220.332 158.366L189.553 151.023C182.807 149.447 176.07 147.908 169.342 146.269C165.403 145.309 161.735 143.534 158.113 140.817C155.288 138.717 153.767 135.846 153.794 132.713C153.812 129.507 155.424 126.365 158.005 124.527C161.21 122.236 165.068 120.833 170.51 120.027L170.501 120.008Z" fill="#FFFCF4"/>
</svg>
